<?xml version="1.0" standalone="no"?>
<!DOCTYPE svg PUBLIC "-//W3C//DTD SVG 20010904//EN"
 "http://www.w3.org/TR/2001/REC-SVG-20010904/DTD/svg10.dtd">
<svg version="1.0" xmlns="http://www.w3.org/2000/svg"
 width="1083.000000pt" height="1083.000000pt" viewBox="0 0 1083.000000 1083.000000"
 preserveAspectRatio="xMidYMid meet">
<metadata>
Created by potrace 1.11, written by Peter Selinger 2001-2013
</metadata>
<g transform="translate(0.000000,1083.000000) scale(0.100000,-0.100000)"
fill="#000000" stroke="none">
<path d="M0 5415 l0 -5415 5415 0 5415 0 0 5415 0 5415 -5415 0 -5415 0 0
-5415z m9990 50 l0 -4575 -4575 0 -4575 0 0 4575 0 4575 4575 0 4575 0 0
-4575z"/>
<path d="M2478 6248 l-3 -1843 -22 -78 c-49 -171 -143 -288 -286 -356 -202
-97 -401 -103 -912 -30 -115 16 -220 32 -232 35 l-23 6 0 -541 c0 -298 1 -541
3 -541 2 0 79 -16 172 -35 366 -75 613 -101 900 -92 389 12 673 73 944 203
159 76 269 152 387 269 227 224 340 476 395 880 9 68 13 571 16 2028 l4 1937
-670 0 -671 0 -2 -1842z"/>
<path d="M3950 5490 l0 -2600 680 0 680 0 0 1045 0 1045 768 0 767 0 723
-1045 723 -1045 799 0 799 0 -194 257 c-107 142 -475 629 -818 1083 -344 454
-623 826 -622 828 2 2 58 14 126 28 299 61 512 142 704 269 374 247 584 716
562 1250 -11 260 -59 450 -165 658 -195 386 -585 670 -1049 766 -275 57 -171
54 -2415 58 l-2068 4 0 -2601z m3645 1680 c284 -23 444 -87 552 -219 89 -108
126 -232 127 -421 1 -206 -45 -331 -162 -441 -107 -102 -233 -153 -437 -178
-61 -7 -460 -11 -1227 -11 l-1138 0 0 640 0 640 1083 0 c616 0 1134 -5 1202
-10z"/>
</g>
</svg>
